<svg width="245" height="55" viewBox="0 0 245 55" fill="none" xmlns="http://www.w3.org/2000/svg">
<path fill-rule="evenodd" clip-rule="evenodd" d="M0 14.5172V55H8.52969V30.016L19.0564 46.3233H24.0092L31.8094 34.2779L33.4489 31.7491L29.0414 23.9896L27.4019 26.5276L21.5608 35.5672L7.90495 14.5172H0ZM112.953 22.0722H106.598V47.3455H112.953C120.844 47.3455 125.1 43.0559 125.1 34.7089C125.1 26.3618 120.844 22.0741 112.953 22.0741V22.0722ZM112.953 14.4214C127.088 14.4214 133.783 22.9416 133.783 34.7089C133.783 46.4762 127.088 54.9964 112.953 54.9964H98.0842V14.4214H112.953ZM153.119 14.4214C157.648 14.4214 162.232 15.5357 165.506 17.4309V25.2328C162.286 22.8937 157.976 21.7223 153.719 21.7776C149.571 21.8328 147.496 23.0042 147.496 25.4004C147.496 32.1451 168.398 29.6365 168.398 43.5145C168.398 52.265 161.522 54.9964 153.5 54.9964C148.206 54.9964 143.295 53.7145 139.366 51.4859V43.5145C143.381 46.2187 148.089 47.6539 152.901 47.6402C157.321 47.6402 160.049 46.6917 160.049 43.905C160.049 36.6041 139.147 39.3355 139.147 25.5127C139.147 17.9871 145.588 14.4214 153.119 14.4214ZM202.813 14.4214V22.0722H183.347V30.7103H201.11V38.3022H183.347V47.3455H203.154V54.9964H174.833V14.4214H202.813ZM210.036 54.9964V14.4214H218.038L236.54 40.9121C236.424 39.0591 236.368 37.2028 236.37 35.3461V14.4214H244.884V54.9964H236.881L218.379 28.5057C218.491 30.1872 218.549 32.2151 218.549 34.0716V54.9964H210.036ZM72.9249 21.8623C72.9702 21.0996 72.7951 20.34 72.4211 19.6779L69.4491 14.4251H66.3814L70.1172 21.0335C70.2616 21.2913 70.3086 21.586 70.249 21.8641H72.9249V21.8623Z" fill="#DBDBDB"/>
<path fill-rule="evenodd" clip-rule="evenodd" d="M92.4181 36.5506L83.029 53.1544C82.7142 53.7146 82.2602 54.1802 81.7127 54.5042C81.1652 54.8282 80.5437 54.9992 79.9107 54.9999H61.1324C60.4991 54.9995 59.8771 54.8287 59.3293 54.5047C58.7815 54.1806 58.3272 53.7149 58.0123 53.1544L52.4312 43.2805L50.8946 40.5694L48.6231 36.5506C48.3079 35.99 48.1421 35.355 48.1421 34.7087C48.1421 34.0625 48.3079 33.4275 48.6231 32.8669L58.0123 16.2631C58.3274 15.7033 58.7819 15.2383 59.3298 14.9152C59.8777 14.5921 60.4995 14.4224 61.1324 14.4231H66.3831L70.1171 21.0315C70.2615 21.2894 70.3085 21.584 70.2489 21.8622H63.2576L55.9936 34.7124L59.2907 40.5417L60.6412 42.9361L63.2576 47.5609H77.7855L85.0476 34.7124L77.7855 21.8622H72.9248C72.9702 21.0994 72.7951 20.3399 72.421 19.6778L69.449 14.4249H79.9107C80.5432 14.4245 81.1647 14.5944 81.7122 14.9175C82.2598 15.2406 82.714 15.7054 83.029 16.2649L92.4181 32.8669C93.0609 34.0089 93.0609 35.4086 92.4181 36.5524" fill="#DBDBDB"/>
<mask id="mask0_9_798" style="mask-type:alpha" maskUnits="userSpaceOnUse" x="25" y="0" width="48" height="44">
<path d="M25.1885 0H72.9287V43.2806H25.1885V0Z" fill="#F17900"/>
</mask>
<g mask="url(#mask0_9_798)">
<path fill-rule="evenodd" clip-rule="evenodd" d="M42.9409 40.5691V43.2802H52.4294L50.8946 40.5691H42.9391H42.9409ZM72.4193 19.6775L69.4472 14.4247L62.4017 1.95933C62.0639 1.3631 61.5782 0.868004 60.9935 0.523716C60.4087 0.179428 59.7455 -0.00194255 59.0704 -0.00219727H39.0462C37.6703 -0.00219727 36.4064 0.74926 35.7167 1.95933L25.6992 19.6775C25.3639 20.2747 25.1875 20.9509 25.1875 21.639C25.1875 22.3272 25.3639 23.0034 25.6992 23.6005L27.3134 26.4609L31.7118 34.2333L34.4329 39.0459V33.6236L33.3459 31.6953L28.9492 23.9173L28.0031 22.2487C27.8989 22.0634 27.844 21.8535 27.844 21.6399C27.844 21.4263 27.8989 21.2165 28.0031 21.0312L38.0152 3.31858C38.1199 3.13367 38.2704 2.98014 38.4517 2.87345C38.633 2.76675 38.8387 2.71065 39.048 2.71078H59.0722C59.4947 2.71078 59.8919 2.94101 60.1032 3.31858L66.3813 14.4247L70.1153 21.0312C70.2598 21.2891 70.3085 21.5838 70.2489 21.8619C70.2274 21.9979 70.1821 22.1289 70.1153 22.2487L60.1032 39.9595C60.0191 40.1123 59.9024 40.2439 59.7618 40.3447C59.6212 40.4454 59.4602 40.5126 59.2907 40.5415L60.6413 42.9358C61.3803 42.5992 61.9963 42.0333 62.4017 41.3187L72.4193 23.6005C72.7186 23.0692 72.8917 22.4738 72.9248 21.8619C72.9697 21.099 72.7939 20.3394 72.4193 19.6775Z" fill="#F17900"/>
</g>
<path fill-rule="evenodd" clip-rule="evenodd" d="M42.9428 14.4249V54.9999H34.433V30.0121L33.3478 31.6956L28.9512 23.9194L35.0559 14.4231L42.9428 14.4249Z" fill="#DBDBDB"/>
</svg>
